<svg t="1718281989086" class="icon" viewBox="0 0 1024 1024" version="1.1" xmlns="http://www.w3.org/2000/svg" p-id="11358" width="64" height="64"><path d="M0 0m51.2 0l921.6 0q51.2 0 51.2 51.2l0 921.6q0 51.2-51.2 51.2l-921.6 0q-51.2 0-51.2-51.2l0-921.6q0-51.2 51.2-51.2Z" fill="#36ab60" p-id="11359" data-spm-anchor-id="a313x.search_index.0.i16.6d773a81sjv6pw" class="selected"></path><path d="M513.472 512.192a152.1408 152.1408 0 0 0 152.8704-153.5104v-8.8576a152.2304 152.2304 0 0 0-161.6896-144.64 153.6 153.6 0 0 0 8.8192 307.008zM819.2 715.8784c0-88.5632-149.9264-138.752-258.7008-150.5536-5.8752 11.8016-41.152 70.848-44.096 76.8-2.944 2.9568-8.8192 2.9568-8.8192 0-2.944-2.9568-35.2768-64.9472-44.096-76.8-105.8304 11.8016-258.7008 61.9904-258.7008 150.5536v76.8a26.4064 26.4064 0 0 0 26.4576 26.5728h561.536a26.4064 26.4064 0 0 0 26.4576-26.5728z" fill="#ffffff" p-id="11360" data-spm-anchor-id="a313x.search_index.0.i15.6d773a81sjv6pw" class=""></path></svg>