<svg t="1718444840398" class="icon" viewBox="0 0 1024 1024" version="1.1"
    xmlns="http://www.w3.org/2000/svg" p-id="6012" width="200" height="200">
    <path
        d="M512 85.333333C276.352 85.333333 85.333333 276.352 85.333333 512s191.018667 426.666667 426.666667 426.666667 426.666667-191.018667 426.666667-426.666667S747.648 85.333333 512 85.333333z m205.312 581.546667a36.010667 36.010667 0 0 1-51.029333 50.816L512 562.986667l-154.282667 154.709333a35.84 35.84 0 0 1-50.901333 0.085333 36.010667 36.010667 0 0 1-0.128-50.901333L461.226667 512 306.773333 357.12a36.010667 36.010667 0 0 1 50.986667-50.816L512 461.013333l154.282667-154.794666a36.010667 36.010667 0 0 1 51.029333 50.773333L562.773333 512l154.453334 154.88z"
        fill="#cdcdcd" p-id="6013" data-spm-anchor-id="a313x.search_index.0.i0.12603a81eCD5oG"
        class="selected"></path>
</svg>