<svg t="1718426238358" class="icon" viewBox="0 0 1024 1024" version="1.1"
    xmlns="http://www.w3.org/2000/svg" p-id="18447" width="200" height="200">
    <path
        d="M91.022222 0h841.955556c50.062222 0 91.022222 40.96 91.022222 91.022222v841.955556c0 50.062222-40.96 91.022222-91.022222 91.022222H91.022222c-50.062222 0-91.022222-40.96-91.022222-91.022222V91.022222c0-50.062222 40.96-91.022222 91.022222-91.022222z"
        fill="#0e932e" p-id="18448" data-spm-anchor-id="a313x.search_index.0.i0.4b053a81fBscfR"
        class="selected"></path>
    <path
        d="M512 543.857778c-96.711111 0-174.08-85.333333-174.08-190.008889S415.288889 163.84 512 163.84s174.08 85.333333 174.08 190.008889S608.711111 543.857778 512 543.857778z m-284.444444 182.044444C227.555556 651.946667 287.857778 591.644444 361.813333 591.644444h300.373334c47.786667 0 92.16 26.168889 116.053333 67.128889 23.893333 42.097778 23.893333 93.297778 0 134.257778-23.893333 42.097778-68.266667 67.128889-116.053333 67.128889H361.813333C287.857778 859.022222 227.555556 799.857778 227.555556 725.902222z m0 0"
        fill="#ffffff" p-id="18449" data-spm-anchor-id="a313x.search_index.0.i1.4b053a81fBscfR"
        class=""></path>
</svg>